<?xml version="1.0" standalone="no"?>
<!DOCTYPE svg PUBLIC "-//W3C//DTD SVG 20010904//EN"
 "http://www.w3.org/TR/2001/REC-SVG-20010904/DTD/svg10.dtd">
<svg version="1.0" xmlns="http://www.w3.org/2000/svg"
 width="479.000000pt" height="359.000000pt" viewBox="0 0 479.000000 359.000000"
 preserveAspectRatio="xMidYMid meet">

<g transform="translate(0.000000,359.000000) scale(0.100000,-0.100000)"
fill="#000000" stroke="none">
<path d="M2020 3080 l0 -160 -40 0 -39 0 -3 -122 -3 -123 -37 -3 -38 -3 0
-154 0 -154 38 -3 37 -3 3 -162 2 -163 -40 0 -40 0 0 120 0 120 -39 0 -38 0
-7 79 -7 80 -37 3 c-35 3 -37 5 -40 41 -3 36 -4 37 -43 37 l-39 0 0 80 0 80
-34 0 c-33 0 -35 -2 -38 -37 -3 -37 -4 -38 -45 -41 l-43 -3 0 -80 0 -79 -40 0
-40 0 2 -237 3 -238 40 -5 40 -5 3 -77 3 -77 37 -3 c35 -3 37 -5 40 -40 3 -37
4 -38 43 -38 39 0 39 0 39 -40 l0 -40 40 0 40 0 0 -40 0 -40 40 0 40 0 0 -40
0 -40 40 0 40 0 0 -40 0 -40 40 0 40 0 0 -40 0 -40 123 -2 c336 -5 549 -5 615
-1 l72 5 0 39 c0 39 0 39 40 39 l40 0 0 160 0 160 40 0 40 0 0 160 0 160 -40
0 -40 0 0 80 0 80 39 0 c40 0 40 0 43 43 3 41 4 42 38 42 33 0 35 2 40 40 5
38 7 40 43 43 l37 3 0 154 0 154 -37 3 -38 3 -3 123 -3 122 -39 0 -40 0 0 80
0 80 -40 0 -40 0 0 80 0 80 -40 0 -40 0 0 -80 0 -80 -40 0 -40 0 0 -40 0 -40
-40 0 -40 0 0 -40 0 -40 -45 0 -45 0 0 80 0 80 -35 0 c-34 0 -35 -1 -35 -40
l0 -40 -45 0 -45 0 0 40 0 40 -40 0 -40 0 0 40 0 40 -40 0 -40 0 0 -40 0 -40
-40 0 -40 0 0 80 0 80 -40 0 -40 0 0 -160z m162 -207 c3 -36 5 -38 40 -41 35
-3 37 -5 40 -40 3 -35 5 -37 41 -40 36 -3 37 -4 37 -43 l0 -39 45 0 45 0 0 40
c0 39 1 40 35 40 34 0 35 -1 35 -40 l0 -40 45 0 45 0 0 40 c0 39 1 40 34 40
33 0 35 -2 38 -37 3 -38 3 -38 48 -38 l45 0 3 40 c3 40 4 41 37 37 l35 -4 0
-79 0 -79 40 0 c39 0 40 -1 40 -35 l0 -35 -74 0 -75 0 -3 38 c-3 37 -3 37 -51
40 l-48 3 3 -43 c3 -43 3 -43 46 -46 42 -3 42 -3 42 -44 l0 -40 80 7 80 7 0
-46 0 -46 -40 0 -40 0 0 -40 0 -40 -40 0 -40 0 0 -40 0 -40 -40 0 -40 0 0 -80
0 -80 40 0 40 0 0 -160 0 -160 -40 0 -40 0 0 -165 0 -165 -80 0 -79 0 -3 123
-3 122 -80 0 -80 0 -3 -123 -3 -123 -77 3 -77 3 -3 123 -3 122 -39 0 -40 0 0
-80 0 -80 -80 0 -80 0 0 40 c0 40 0 40 -39 40 l-38 0 -6 53 c-2 28 -2 98 1
155 l5 102 38 0 c39 0 39 0 39 39 l0 39 80 7 80 7 0 39 c0 39 0 39 39 39 39 0
40 1 43 38 3 35 5 37 41 40 36 3 37 4 37 43 0 38 -1 39 -35 39 -34 0 -35 1
-35 40 l0 40 -45 0 -45 0 0 40 0 40 -40 0 -40 0 0 45 0 44 123 -2 122 -2 0 40
0 40 -122 3 -123 3 0 34 0 35 79 0 79 0 4 40 3 39 -40 3 c-40 3 -40 3 -43 48
-2 25 -1 78 3 118 l7 72 33 0 c32 0 34 -2 37 -37z m-492 -643 l0 -40 -75 0
-75 0 0 40 0 40 75 0 75 0 0 -40z m0 -160 l0 -40 -75 0 -75 0 0 40 0 40 75 0
75 0 0 -40z m0 -160 c0 -39 -1 -40 -35 -40 -34 0 -35 1 -35 40 0 39 1 40 35
40 34 0 35 -1 35 -40z m80 -160 c0 -39 -1 -40 -35 -40 -34 0 -35 1 -35 40 0
39 1 40 35 40 34 0 35 -1 35 -40z"/>
<path d="M2340 2554 l0 -45 43 3 c42 3 42 3 45 46 l3 42 -45 0 -46 0 0 -46z"/>
<path d="M2508 2478 l-3 -43 -83 -3 -83 -3 3 -37 c3 -36 4 -37 46 -40 42 -3
42 -3 42 -43 l0 -40 78 3 77 3 3 38 c3 36 4 37 43 37 39 0 39 0 39 40 l0 40
-40 0 -40 0 0 45 0 45 -39 0 c-40 0 -40 0 -43 -42z"/>
<path d="M310 940 l0 -40 -40 0 -40 0 0 -40 0 -40 -40 0 -40 0 0 -205 0 -205
40 0 40 0 0 -40 0 -40 40 0 40 0 0 -40 0 -40 85 0 85 0 0 40 0 40 40 0 40 0 0
40 0 40 40 0 40 0 0 205 0 205 -40 0 -40 0 0 40 0 40 -40 0 -40 0 0 40 0 40
-85 0 -85 0 0 -40z m170 -80 l0 -40 40 0 40 0 0 -205 0 -205 -40 0 -40 0 0
-40 0 -40 -80 0 -80 0 0 39 c0 40 0 40 -42 43 l-43 3 -3 203 -2 202 45 0 45 0
0 40 0 40 80 0 80 0 0 -40z"/>
<path d="M320 615 l0 -205 80 0 80 0 0 205 0 205 -80 0 -80 0 0 -205z"/>
<path d="M880 940 l0 -40 -40 0 -40 0 0 -285 0 -285 40 0 40 0 0 -40 0 -40
125 0 125 0 0 40 0 40 40 0 40 0 0 40 0 40 40 0 40 0 0 205 0 205 -40 0 -40 0
0 40 0 40 -40 0 -40 0 0 40 0 40 -125 0 -125 0 0 -40z m250 -80 l0 -40 40 0
40 0 0 -205 0 -205 -40 0 -40 0 0 -40 0 -41 -122 3 -123 3 -3 283 -2 282 125
0 125 0 0 -40z"/>
<path d="M964 807 c-2 -7 -3 -98 -2 -202 l3 -190 83 -3 82 -3 0 206 0 205 -80
0 c-56 0 -82 -4 -86 -13z"/>
<path d="M1530 940 l0 -40 -40 0 -40 0 0 -285 0 -285 40 0 40 0 0 -40 0 -40
165 0 165 0 0 40 0 40 41 0 40 0 -3 43 c-3 41 -4 42 -40 45 -37 3 -38 4 -38
43 0 39 0 39 -40 39 -39 0 -40 1 -40 34 0 33 2 35 38 38 36 3 37 4 40 46 l3
42 -40 0 -41 0 0 40 0 40 40 0 40 0 0 40 0 40 40 0 40 0 0 40 0 40 -40 0 -40
0 0 40 0 40 -165 0 -165 0 0 -40z m330 -80 l0 -40 -125 0 -125 0 0 -80 0 -80
85 0 85 0 0 -40 0 -39 -82 -3 -83 -3 0 -80 0 -80 123 -3 122 -3 0 -39 0 -40
-165 0 -165 0 0 285 0 285 165 0 165 0 0 -40z"/>
<path d="M2180 941 l0 -41 -40 0 -40 0 0 -285 0 -285 40 0 40 0 0 -40 0 -40
40 0 40 0 0 40 0 40 80 0 80 0 0 -40 0 -40 45 0 45 0 0 40 0 40 40 0 40 0 0
285 0 285 -40 0 -40 0 0 40 0 40 -45 0 -45 0 0 -40 0 -41 -77 3 -78 3 0 35
c-1 34 -2 35 -43 38 l-42 3 0 -40z m80 -81 l0 -40 40 0 40 0 0 -80 0 -80 45 0
45 0 0 120 0 120 40 0 40 0 0 -285 0 -285 -40 0 -39 0 -3 83 -3 82 -42 3 -43
3 0 80 0 80 -37 -3 -38 -3 -3 -162 -2 -163 -40 0 -40 0 0 285 0 285 40 0 40 0
0 -40z"/>
<path d="M2910 940 l0 -40 -40 0 -40 0 0 -40 0 -40 -40 0 -40 0 0 -205 0 -205
40 0 40 0 0 -40 0 -40 40 0 40 0 0 -40 0 -40 85 0 85 0 0 40 0 40 40 0 c40 0
40 0 40 39 0 39 1 40 38 43 36 3 37 4 37 43 0 39 -1 40 -37 43 -35 3 -37 5
-40 40 -3 36 -4 37 -43 37 -39 0 -40 -1 -43 -37 -3 -36 -5 -38 -36 -38 -33 0
-33 1 -40 56 -3 31 -3 85 0 120 l7 64 33 0 c33 0 34 -1 34 -40 l0 -40 45 0 45
0 0 40 0 40 40 0 40 0 0 40 0 40 -40 0 -40 0 0 40 0 40 -40 0 -40 0 0 40 0 40
-85 0 -85 0 0 -40z m160 -80 l0 -40 -80 0 -80 0 0 -205 0 -205 80 0 80 0 0
-40 0 -40 -80 0 -80 0 0 40 0 40 -40 0 -40 0 0 205 0 205 40 0 40 0 0 40 0 40
80 0 80 0 0 -40z m90 -80 l0 -40 -40 0 -40 0 0 40 0 40 40 0 40 0 0 -40z m0
-320 l0 -40 -40 0 -40 0 0 40 0 40 40 0 40 0 0 -40z"/>
<path d="M3560 940 l0 -40 -40 0 -40 0 0 -40 0 -40 -40 0 -40 0 0 -245 0 -245
40 0 40 0 0 -40 0 -40 40 0 40 0 0 40 0 40 80 0 80 0 0 -40 0 -40 45 0 45 0 0
39 c0 39 1 40 38 43 l37 3 3 243 2 242 -40 0 -40 0 0 40 0 40 -40 0 -40 0 0
40 0 40 -85 0 -85 0 0 -40z m160 -80 l0 -40 45 0 45 0 -2 -242 -3 -243 -40 0
-40 0 -3 123 -3 123 -77 -3 -77 -3 -3 -122 -3 -123 -39 0 -40 0 0 245 0 245
40 0 40 0 0 40 0 40 80 0 80 0 0 -40z"/>
<path d="M3560 740 l0 -80 80 0 80 0 0 80 0 80 -80 0 -80 0 0 -80z"/>
<path d="M4130 940 l0 -40 -40 0 -40 0 0 -40 0 -40 40 0 40 0 0 -40 0 -40 40
0 40 0 0 -205 0 -205 40 0 40 0 0 -40 0 -40 46 0 45 0 -3 38 c-3 36 -4 37 -45
40 l-43 3 0 245 0 244 -80 0 -80 0 0 40 0 40 205 0 205 0 0 -40 0 -40 -85 0
-85 0 0 -245 0 -245 40 0 40 0 2 202 3 203 43 3 c42 3 42 3 42 43 0 39 0 39
40 39 l40 0 0 40 0 40 -40 0 -40 0 0 40 0 40 -205 0 -205 0 0 -40z"/>
</g>
</svg>
